<?xml version="1.0" encoding="UTF-8"?><svg xmlns="http://www.w3.org/2000/svg" xmlns:xlink="http://www.w3.org/1999/xlink" height="935.9" preserveAspectRatio="xMidYMid meet" version="1.0" viewBox="-0.9 0.0 874.9 935.9" width="874.9" zoomAndPan="magnify"><defs><clipPath id="a"><path d="M 358 876 L 516 876 L 516 935.878906 L 358 935.878906 Z M 358 876"/></clipPath><clipPath id="b"><path d="M 428 876 L 516 876 L 516 935.878906 L 428 935.878906 Z M 428 876"/></clipPath><clipPath id="c"><path d="M 770 378 L 873.980469 378 L 873.980469 421 L 770 421 Z M 770 378"/></clipPath></defs><g><g id="change1_1"><path d="M 436.992188 165.085938 C 303.734375 165.085938 195.71875 273.109375 195.71875 406.359375 C 195.71875 453.34375 209.144531 497.1875 232.375 534.273438 C 242.707031 550.765625 255.648438 565.457031 270.402344 578.144531 C 293.804688 598.269531 344.234375 650.988281 344.234375 731.558594 C 344.253906 732.335938 344.277344 733.105469 344.300781 733.863281 C 345.273438 760.421875 367.230469 781.386719 393.804688 781.386719 L 480.179688 781.386719 C 506.753906 781.386719 528.710938 760.421875 529.679688 733.863281 C 529.703125 733.105469 529.730469 732.335938 529.746094 731.558594 C 529.746094 650.988281 580.175781 598.269531 603.578125 578.144531 C 618.335938 565.457031 631.273438 550.765625 641.609375 534.273438 C 664.835938 497.1875 678.265625 453.34375 678.265625 406.359375 C 678.265625 273.109375 570.246094 165.085938 436.992188 165.085938" fill="#ffce00"/></g><g id="change2_2"><path d="M 507.421875 810.183594 L 366.558594 810.183594 C 361.195312 810.183594 356.84375 805.835938 356.84375 800.46875 C 356.84375 795.105469 361.195312 790.753906 366.558594 790.753906 L 507.421875 790.753906 C 512.789062 790.753906 517.136719 795.105469 517.136719 800.46875 C 517.136719 805.835938 512.789062 810.183594 507.421875 810.183594" fill="#7f8080"/></g><g id="change2_3"><path d="M 507.421875 838.933594 L 366.558594 838.933594 C 361.195312 838.933594 356.84375 834.582031 356.84375 829.21875 C 356.84375 823.851562 361.195312 819.503906 366.558594 819.503906 L 507.421875 819.503906 C 512.789062 819.503906 517.136719 823.851562 517.136719 829.21875 C 517.136719 834.582031 512.789062 838.933594 507.421875 838.933594" fill="#7f8080"/></g><g clip-path="url(#a)" id="change2_1"><path d="M 510.566406 876.996094 C 513.617188 876.996094 515.875 879.8125 515.234375 882.789062 C 511.710938 899.257812 501.667969 921.914062 473.097656 921.914062 C 469.367188 921.914062 466.109375 923.613281 463.316406 926.203125 C 456.464844 932.539062 447.367188 935.878906 438.039062 935.878906 L 435.941406 935.878906 C 426.613281 935.878906 417.515625 932.539062 410.664062 926.203125 C 407.871094 923.613281 404.613281 921.914062 400.882812 921.914062 C 372.316406 921.914062 362.273438 899.257812 358.746094 882.789062 C 358.105469 879.8125 360.363281 876.996094 363.414062 876.996094 L 510.566406 876.996094" fill="#7f8080"/></g><g id="change2_4"><path d="M 507.421875 867.679688 L 366.558594 867.679688 C 361.195312 867.679688 356.84375 863.328125 356.84375 857.964844 C 356.84375 852.597656 361.195312 848.25 366.558594 848.25 L 507.421875 848.25 C 512.789062 848.25 517.136719 852.597656 517.136719 857.964844 C 517.136719 863.328125 512.789062 867.679688 507.421875 867.679688" fill="#7f8080"/></g><g id="change3_1"><path d="M 678.265625 406.359375 C 678.265625 453.339844 664.835938 497.1875 641.605469 534.273438 C 631.273438 550.761719 618.335938 565.453125 603.578125 578.144531 C 580.179688 598.269531 529.742188 650.992188 529.742188 731.558594 C 529.730469 732.332031 529.707031 733.105469 529.679688 733.863281 C 528.710938 760.421875 506.75 781.386719 480.179688 781.386719 L 454.675781 781.386719 C 481.25 781.386719 503.210938 760.421875 504.179688 733.863281 C 504.203125 733.105469 504.230469 732.332031 504.242188 731.558594 C 504.242188 650.992188 554.675781 598.269531 578.078125 578.144531 C 592.835938 565.453125 605.773438 550.761719 616.105469 534.273438 C 639.335938 497.1875 652.765625 453.339844 652.765625 406.359375 C 652.765625 277.386719 551.570312 172.046875 424.242188 165.414062 C 428.460938 165.195312 432.710938 165.085938 436.988281 165.085938 C 570.246094 165.085938 678.265625 273.109375 678.265625 406.359375" fill="#f7c700"/></g><g id="change4_1"><path d="M 517.136719 800.464844 C 517.136719 803.148438 516.046875 805.574219 514.289062 807.332031 C 512.535156 809.09375 510.101562 810.179688 507.421875 810.179688 L 499.222656 810.179688 C 501.90625 810.179688 504.335938 809.09375 506.09375 807.332031 C 507.851562 805.574219 508.9375 803.148438 508.9375 800.464844 C 508.9375 795.101562 504.589844 790.75 499.222656 790.75 L 507.421875 790.75 C 512.785156 790.75 517.136719 795.101562 517.136719 800.464844" fill="#747575"/></g><g id="change4_2"><path d="M 517.136719 829.214844 C 517.136719 831.898438 516.046875 834.324219 514.289062 836.078125 C 512.535156 837.84375 510.101562 838.925781 507.421875 838.925781 L 499.222656 838.925781 C 501.90625 838.925781 504.335938 837.84375 506.09375 836.078125 C 507.851562 834.324219 508.9375 831.898438 508.9375 829.214844 C 508.9375 823.851562 504.589844 819.496094 499.222656 819.496094 L 507.421875 819.496094 C 512.785156 819.496094 517.136719 823.851562 517.136719 829.214844" fill="#747575"/></g><g clip-path="url(#b)" id="change4_4"><path d="M 515.234375 882.789062 C 511.710938 899.253906 501.664062 921.917969 473.097656 921.917969 C 469.367188 921.917969 466.109375 923.613281 463.3125 926.203125 C 456.464844 932.539062 447.367188 935.878906 438.039062 935.878906 L 435.941406 935.878906 C 433.476562 935.878906 431.027344 935.648438 428.632812 935.1875 L 429.84375 935.1875 C 439.171875 935.1875 448.269531 931.84375 455.117188 925.507812 C 457.914062 922.917969 461.171875 921.222656 464.902344 921.222656 C 493.46875 921.222656 503.507812 898.558594 507.035156 882.09375 C 507.484375 880.011719 506.519531 878.019531 504.859375 876.996094 L 510.566406 876.996094 C 513.613281 876.996094 515.875 879.808594 515.234375 882.789062" fill="#747575"/></g><g id="change4_3"><path d="M 517.136719 857.960938 C 517.136719 860.644531 516.046875 863.074219 514.289062 864.832031 C 512.535156 866.589844 510.101562 867.679688 507.421875 867.679688 L 499.222656 867.679688 C 501.90625 867.679688 504.335938 866.589844 506.09375 864.832031 C 507.851562 863.074219 508.9375 860.644531 508.9375 857.960938 C 508.9375 852.597656 504.589844 848.246094 499.222656 848.246094 L 507.421875 848.246094 C 512.785156 848.246094 517.136719 852.597656 517.136719 857.960938" fill="#747575"/></g><g id="change5_1"><path d="M 269.464844 325.929688 C 268.3125 325.929688 267.140625 325.761719 265.980469 325.414062 C 259.570312 323.492188 255.9375 316.738281 257.859375 310.332031 C 266.261719 282.316406 281.507812 259.507812 303.171875 242.546875 C 320.949219 228.625 338.671875 222.308594 347.652344 219.785156 C 354.09375 217.972656 360.78125 221.726562 362.59375 228.167969 C 364.402344 234.609375 360.648438 241.296875 354.210938 243.109375 C 346.949219 245.148438 332.605469 250.269531 318.109375 261.621094 C 300.464844 275.4375 288.003906 294.167969 281.0625 317.292969 C 279.488281 322.539062 274.675781 325.929688 269.464844 325.929688" fill="#ffe575"/></g><g id="change1_2"><path d="M 86.410156 420.449219 C 85.824219 420.449219 85.234375 420.417969 84.636719 420.359375 L 15.605469 413.355469 C 6.070312 412.386719 -0.878906 403.871094 0.0898438 394.332031 C 1.058594 384.796875 9.570312 377.847656 19.113281 378.816406 L 88.140625 385.820312 C 97.679688 386.785156 104.628906 395.304688 103.660156 404.839844 C 102.753906 413.78125 95.207031 420.449219 86.410156 420.449219" fill="#ffce00"/></g><g id="change1_3"><path d="M 147.683594 244.65625 C 144.132812 244.65625 140.546875 243.566406 137.457031 241.3125 L 80.5 199.695312 C 72.757812 194.042969 71.070312 183.183594 76.722656 175.441406 C 82.378906 167.699219 93.238281 166.007812 100.980469 171.664062 L 157.9375 213.28125 C 165.679688 218.9375 167.371094 229.796875 161.714844 237.535156 C 158.316406 242.1875 153.035156 244.65625 147.683594 244.65625" fill="#ffce00"/></g><g id="change1_4"><path d="M 275.691406 139.183594 C 269.367188 139.183594 263.273438 135.714844 260.207031 129.695312 L 228.449219 67.3125 C 224.097656 58.769531 227.496094 48.320312 236.039062 43.96875 C 244.585938 39.621094 255.035156 43.019531 259.386719 51.5625 L 291.144531 113.945312 C 295.496094 122.488281 292.097656 132.941406 283.554688 137.289062 C 281.03125 138.574219 278.339844 139.183594 275.691406 139.183594" fill="#ffce00"/></g><g id="change1_5"><path d="M 436.992188 104.019531 C 427.402344 104.019531 419.632812 96.25 419.632812 86.660156 L 419.632812 17.355469 C 419.632812 7.769531 427.402344 0 436.992188 0 C 446.578125 0 454.347656 7.769531 454.347656 17.355469 L 454.347656 86.660156 C 454.347656 96.25 446.578125 104.019531 436.992188 104.019531" fill="#ffce00"/></g><g id="change1_6"><path d="M 598.289062 139.183594 C 595.640625 139.183594 592.953125 138.574219 590.429688 137.289062 C 581.886719 132.941406 578.484375 122.488281 582.835938 113.945312 L 614.597656 51.5625 C 618.945312 43.019531 629.398438 39.621094 637.941406 43.96875 C 646.484375 48.320312 649.882812 58.769531 645.535156 67.3125 L 613.773438 129.695312 C 610.710938 135.714844 604.613281 139.183594 598.289062 139.183594" fill="#ffce00"/></g><g id="change1_7"><path d="M 726.296875 244.65625 C 720.945312 244.65625 715.667969 242.1875 712.265625 237.535156 C 706.613281 229.796875 708.300781 218.933594 716.042969 213.28125 L 773.003906 171.664062 C 780.742188 166.007812 791.601562 167.699219 797.257812 175.441406 C 802.914062 183.179688 801.222656 194.039062 793.480469 199.695312 L 736.523438 241.3125 C 733.4375 243.566406 729.851562 244.65625 726.296875 244.65625" fill="#ffce00"/></g><g clip-path="url(#c)" id="change1_8"><path d="M 787.570312 420.449219 C 778.773438 420.449219 771.230469 413.785156 770.324219 404.839844 C 769.355469 395.304688 776.304688 386.785156 785.839844 385.820312 L 854.871094 378.816406 C 864.414062 377.847656 872.921875 384.796875 873.890625 394.335938 C 874.859375 403.871094 867.910156 412.386719 858.375 413.355469 L 789.34375 420.359375 C 788.75 420.417969 788.15625 420.449219 787.570312 420.449219" fill="#ffce00"/></g></g></svg>