<?xml version="1.0" encoding="UTF-8"?><svg xmlns="http://www.w3.org/2000/svg" xmlns:xlink="http://www.w3.org/1999/xlink" height="86.4" preserveAspectRatio="xMidYMid meet" version="1.0" viewBox="0.0 0.0 500.0 86.4" width="500.0" zoomAndPan="magnify"><defs><clipPath id="a"><path d="M 102 0 L 194 0 L 194 86.390625 L 102 86.390625 Z M 102 0"/></clipPath><clipPath id="b"><path d="M 204 0 L 296 0 L 296 86.390625 L 204 86.390625 Z M 204 0"/></clipPath><clipPath id="c"><path d="M 306 0 L 398 0 L 398 86.390625 L 306 86.390625 Z M 306 0"/></clipPath><clipPath id="d"><path d="M 409 0 L 500 0 L 500 86.390625 L 409 86.390625 Z M 409 0"/></clipPath><clipPath id="e"><path d="M 0 0 L 91 0 L 91 86.390625 L 0 86.390625 Z M 0 0"/></clipPath></defs><g><g clip-path="url(#a)" id="change1_2"><path d="M 158.433594 32.996094 L 147.710938 0 L 136.988281 32.996094 L 102.289062 32.996094 L 130.359375 53.390625 L 119.640625 86.390625 L 147.710938 65.996094 L 175.78125 86.390625 L 165.058594 53.390625 L 193.128906 32.996094 L 158.433594 32.996094" fill="#ffda3f"/></g><g clip-path="url(#b)" id="change1_3"><path d="M 260.722656 32.996094 L 250 0 L 239.277344 32.996094 L 204.582031 32.996094 L 232.652344 53.390625 L 221.929688 86.390625 L 250 65.996094 L 278.070312 86.390625 L 267.347656 53.390625 L 295.417969 32.996094 L 260.722656 32.996094" fill="#ffda3f"/></g><g clip-path="url(#c)" id="change1_1"><path d="M 363.011719 32.996094 L 352.289062 0 L 341.566406 32.996094 L 306.871094 32.996094 L 334.941406 53.390625 L 324.21875 86.390625 L 352.289062 65.996094 L 380.359375 86.390625 L 369.640625 53.390625 L 397.710938 32.996094 L 363.011719 32.996094" fill="#ffda3f"/></g><g clip-path="url(#d)" id="change1_4"><path d="M 500 32.996094 L 465.304688 32.996094 L 454.582031 0 L 443.859375 32.996094 L 409.160156 32.996094 L 437.230469 53.390625 L 426.511719 86.390625 L 454.582031 65.996094 L 482.652344 86.390625 L 471.929688 53.390625 L 500 32.996094" fill="#ffda3f"/></g><g clip-path="url(#e)" id="change1_5"><path d="M 56.140625 32.996094 L 45.417969 0 L 34.695312 32.996094 L 0 32.996094 L 28.070312 53.390625 L 17.347656 86.390625 L 45.417969 65.996094 L 73.488281 86.390625 L 62.769531 53.390625 L 90.839844 32.996094 L 56.140625 32.996094" fill="#ffda3f"/></g></g></svg>