<?xml version="1.0" encoding="UTF-8" standalone="no"?><svg xmlns="http://www.w3.org/2000/svg" xmlns:xlink="http://www.w3.org/1999/xlink" fill="#000000" height="60" preserveAspectRatio="xMidYMid meet" version="1" viewBox="1.3 2.0 60.7 60.0" width="60.7" zoomAndPan="magnify"><g data-name="Symbol Sex" fill="#ffffff" id="change1_1"><path d="M36,28a16.893,16.893,0,0,0-2.39-8.68,8.89452,8.89452,0,0,0-4.92,3.44A11.121,11.121,0,0,1,30,28,11,11,0,1,1,19,17a11.47921,11.47921,0,0,1,1.44.09,18.85513,18.85513,0,0,1,4.94-4.84A16.63981,16.63981,0,0,0,19,11a16.9928,16.9928,0,0,0-3,33.72V51H14a1.003,1.003,0,0,0-1,1v4a1.003,1.003,0,0,0,1,1h2v4a1.003,1.003,0,0,0,1,1h4a1.003,1.003,0,0,0,1-1V57h2a1.003,1.003,0,0,0,1-1V52a1.003,1.003,0,0,0-1-1H22V44.72A17.00211,17.00211,0,0,0,36,28Z" fill="inherit"/><path d="M61,2H49a1.003,1.003,0,0,0-1,1V7a1.003,1.003,0,0,0,1,1h2.59L45.6,13.99A16.80175,16.80175,0,0,0,36,11,16.9907,16.9907,0,0,0,21.39,36.68a9.00122,9.00122,0,0,0,4.93-3.43A11.00858,11.00858,0,1,1,36,39a9.99743,9.99743,0,0,1-1.45-.1,18.75611,18.75611,0,0,1-4.95,4.84A16.82352,16.82352,0,0,0,36,45,17.02418,17.02418,0,0,0,53,28a16.80253,16.80253,0,0,0-2.99-9.6L56,12.41V15a1.003,1.003,0,0,0,1,1h4a1.003,1.003,0,0,0,1-1V3A1.003,1.003,0,0,0,61,2Z" fill="inherit"/></g></svg>